<svg width="984px" height="984px" viewBox="0 0 984 984" version="1.1" xmlns="http://www.w3.org/2000/svg" xmlns:xlink="http://www.w3.org/1999/xlink">
    <g id="xmess" stroke="none" stroke-width="1" fill="none" fill-rule="evenodd">
        <path d="M324.115028,701.000777 L375.562688,734.411277 C379.268168,736.817644 380.321307,741.772274 377.91494,745.477754 C377.069789,746.779173 375.864387,747.806706 374.445584,748.435172 L202.532962,824.58474 C198.493259,826.374147 193.767831,824.549922 191.978424,820.510219 C191.529402,819.496522 191.295985,818.40056 191.292983,817.291871 L190.783634,629.170165 C190.771671,624.751903 194.343682,621.160497 198.761944,621.148534 C200.315904,621.144326 201.837451,621.59279 203.140717,622.43914 L253.266402,654.991141 L387.865361,489.328898 C377.550504,481.668337 368.215409,472.562494 360.183114,462.169974 L289.782879,371.083194 C285.112616,371.688055 280.350466,372 275.515458,372 C214.764136,372 165.515458,322.751322 165.515458,262 C165.515458,201.248678 214.764136,152 275.515458,152 C336.266781,152 385.515458,201.248678 385.515458,262 C385.515458,287.020726 377.16168,310.090323 363.091086,328.571829 L426.645759,410.801532 C437.629073,425.012204 454.576222,433.332847 472.536634,433.332847 L482.565527,433.332847 C485.64278,433.332847 488.708243,433.432641 491.757724,433.630235 C494.807212,433.432641 497.872676,433.332847 500.949931,433.332847 L510.978825,433.332847 C528.939236,433.332847 545.886385,425.012204 556.869699,410.801532 L659.209611,278.389858 L606.896378,244.417247 C603.190898,242.010881 602.137759,237.05625 604.544126,233.35077 C605.389277,232.049351 606.594679,231.021819 608.013482,230.393353 L779.926104,154.243784 C783.965807,152.454377 788.691235,154.278603 790.480642,158.318306 C790.929664,159.332002 791.163081,160.427965 791.166083,161.536654 L791.675432,349.65836 C791.687395,354.076621 788.115384,357.668028 783.697122,357.679991 C782.143162,357.684198 780.621614,357.235735 779.318349,356.389384 L729.895644,324.293904 L623.332344,462.169974 C615.300049,472.562494 605.964954,481.668337 595.650097,489.328898 L695.092409,611.720904 C702.947469,609.940154 711.121671,609 719.515458,609 C780.266781,609 829.515458,658.248678 829.515458,719 C829.515458,779.751322 780.266781,829 719.515458,829 C658.764136,829 609.515458,779.751322 609.515458,719 C609.515458,697.458084 615.707755,677.362456 626.409453,660.396012 L527.580354,538.758738 C518.522838,527.610893 505.730555,520.307865 491.757729,518.065397 C477.784903,520.307865 464.99262,527.610893 455.935105,538.758738 L324.115028,701.000777 L324.115028,701.000777 Z M168.5,0 L815.5,0 C908.55998,-1.89290832e-14 984,75.4400197 984,168.5 L984,815.5 C984,908.55998 908.55998,984 815.5,984 L168.5,984 C75.4400197,984 2.36753963e-14,908.55998 0,815.5 L0,168.5 C-9.46454158e-15,75.4400197 75.4400197,3.31399379e-14 168.5,0 Z M168.5,84 C121.831939,84 84,121.831939 84,168.5 L84,815.5 C84,862.168061 121.831939,900 168.5,900 L815.5,900 C862.168061,900 900,862.168061 900,815.5 L900,168.5 C900,121.831939 862.168061,84 815.5,84 L168.5,84 Z M275.515458,288 C289.874862,288 301.515458,276.359403 301.515458,262 C301.515458,247.640597 289.874862,236 275.515458,236 C261.156055,236 249.515458,247.640597 249.515458,262 C249.515458,276.359403 261.156055,288 275.515458,288 Z M719.515458,745 C733.874862,745 745.515458,733.359403 745.515458,719 C745.515458,704.640597 733.874862,693 719.515458,693 C705.156055,693 693.515458,704.640597 693.515458,719 C693.515458,733.359403 705.156055,745 719.515458,745 Z" id="Shape" fill="#EF5722" fill-rule="nonzero"></path>
    </g>
</svg>
